<svg aria-hidden="true" style="position: absolute; width: 0; height: 0; overflow: hidden;" version="1.1" xmlns="http://www.w3.org/2000/svg" xmlns:xlink="http://www.w3.org/1999/xlink">
<defs>
<symbol id="icon-slack" viewBox="0 0 24 24">
<path d="M14.5 11c0.69 0 1.316-0.28 1.768-0.732s0.732-1.078 0.732-1.768v-5c0-0.69-0.28-1.316-0.732-1.768s-1.078-0.732-1.768-0.732-1.316 0.28-1.768 0.732-0.732 1.078-0.732 1.768v5c0 0.69 0.28 1.316 0.732 1.768s1.078 0.732 1.768 0.732zM14.5 9c-0.14 0-0.264-0.055-0.354-0.146s-0.146-0.214-0.146-0.354v-5c0-0.14 0.055-0.264 0.146-0.354s0.214-0.146 0.354-0.146 0.264 0.055 0.354 0.146 0.146 0.214 0.146 0.354v5c0 0.14-0.055 0.264-0.146 0.354s-0.214 0.146-0.354 0.146zM20.5 11c0.69 0 1.316-0.28 1.768-0.732s0.732-1.078 0.732-1.768-0.28-1.316-0.732-1.768-1.078-0.732-1.768-0.732-1.316 0.28-1.768 0.732-0.732 1.078-0.732 1.768v1.5c0 0.552 0.448 1 1 1zM20.5 9h-0.5v-0.5c0-0.14 0.055-0.264 0.146-0.354s0.214-0.146 0.354-0.146 0.264 0.055 0.354 0.146 0.146 0.214 0.146 0.354-0.055 0.264-0.146 0.354-0.214 0.146-0.354 0.146zM9.5 13c-0.69 0-1.316 0.28-1.768 0.732s-0.732 1.078-0.732 1.768v5c0 0.69 0.28 1.316 0.732 1.768s1.078 0.732 1.768 0.732 1.316-0.28 1.768-0.732 0.732-1.078 0.732-1.768v-5c0-0.69-0.28-1.316-0.732-1.768s-1.078-0.732-1.768-0.732zM9.5 15c0.14 0 0.264 0.055 0.354 0.146s0.146 0.214 0.146 0.354v5c0 0.14-0.055 0.264-0.146 0.354s-0.214 0.146-0.354 0.146-0.264-0.055-0.354-0.146-0.146-0.214-0.146-0.354v-5c0-0.14 0.055-0.264 0.146-0.354s0.214-0.146 0.354-0.146zM3.5 13c-0.69 0-1.316 0.28-1.768 0.732s-0.732 1.078-0.732 1.768 0.28 1.316 0.732 1.768 1.078 0.732 1.768 0.732 1.316-0.28 1.768-0.732 0.732-1.078 0.732-1.768v-1.5c0-0.552-0.448-1-1-1zM3.5 15h0.5v0.5c0 0.14-0.055 0.264-0.146 0.354s-0.214 0.146-0.354 0.146-0.264-0.055-0.354-0.146-0.146-0.214-0.146-0.354 0.055-0.264 0.146-0.354 0.214-0.146 0.354-0.146zM13 14.5c0 0.69 0.28 1.316 0.732 1.768s1.078 0.732 1.768 0.732h5c0.69 0 1.316-0.28 1.768-0.732s0.732-1.078 0.732-1.768-0.28-1.316-0.732-1.768-1.078-0.732-1.768-0.732h-5c-0.69 0-1.316 0.28-1.768 0.732s-0.732 1.078-0.732 1.768zM15 14.5c0-0.14 0.055-0.264 0.146-0.354s0.214-0.146 0.354-0.146h5c0.14 0 0.264 0.055 0.354 0.146s0.146 0.214 0.146 0.354-0.055 0.264-0.146 0.354-0.214 0.146-0.354 0.146h-5c-0.14 0-0.264-0.055-0.354-0.146s-0.146-0.214-0.146-0.354zM15.5 20c0.14 0 0.264 0.055 0.354 0.146s0.146 0.214 0.146 0.354-0.055 0.264-0.146 0.354-0.214 0.146-0.354 0.146-0.264-0.055-0.354-0.146-0.146-0.214-0.146-0.354v-0.5zM15.5 18h-1.5c-0.552 0-1 0.448-1 1v1.5c0 0.69 0.28 1.316 0.732 1.768s1.078 0.732 1.768 0.732 1.316-0.28 1.768-0.732 0.732-1.078 0.732-1.768-0.28-1.316-0.732-1.768-1.078-0.732-1.768-0.732zM9 9.5c0 0.14-0.055 0.264-0.146 0.354s-0.214 0.146-0.354 0.146h-5c-0.14 0-0.264-0.055-0.354-0.146s-0.146-0.214-0.146-0.354 0.055-0.264 0.146-0.354 0.214-0.146 0.354-0.146h5c0.14 0 0.264 0.055 0.354 0.146s0.146 0.214 0.146 0.354zM11 9.5c0-0.69-0.28-1.316-0.732-1.768s-1.078-0.732-1.768-0.732h-5c-0.69 0-1.316 0.28-1.768 0.732s-0.732 1.078-0.732 1.768 0.28 1.316 0.732 1.768 1.078 0.732 1.768 0.732h5c0.69 0 1.316-0.28 1.768-0.732s0.732-1.078 0.732-1.768zM8.5 4c-0.14 0-0.264-0.055-0.354-0.146s-0.146-0.214-0.146-0.354 0.055-0.264 0.146-0.354 0.214-0.146 0.354-0.146 0.264 0.055 0.354 0.146 0.146 0.214 0.146 0.354v0.5zM8.5 6h1.5c0.552 0 1-0.448 1-1v-1.5c0-0.69-0.28-1.316-0.732-1.768s-1.078-0.732-1.768-0.732-1.316 0.28-1.768 0.732-0.732 1.078-0.732 1.768 0.28 1.316 0.732 1.768 1.078 0.732 1.768 0.732z"></path>
</symbol>
<symbol id="icon-upload-cloud" viewBox="0 0 24 24">
<path d="M11 14.414v6.586c0 0.552 0.448 1 1 1s1-0.448 1-1v-6.586l2.293 2.293c0.391 0.391 1.024 0.391 1.414 0s0.391-1.024 0-1.414l-4-4c-0.092-0.092-0.202-0.166-0.324-0.217s-0.253-0.076-0.383-0.076c-0.256 0-0.512 0.098-0.707 0.293l-4 4c-0.391 0.391-0.391 1.024 0 1.414s1.024 0.391 1.414 0zM20.869 19.268c1.454-0.793 2.451-2.102 2.884-3.574s0.305-3.112-0.488-4.566c-0.679-1.245-1.737-2.155-2.959-2.663-0.724-0.301-1.505-0.46-2.299-0.465h-0.527c-0.725-2.057-2.144-3.708-3.917-4.752-1.983-1.168-4.415-1.581-6.821-0.959s-4.333 2.162-5.502 4.145-1.581 4.415-0.959 6.821c0.372 1.437 1.073 2.709 1.975 3.713 0.369 0.411 1.002 0.444 1.412 0.075s0.444-1.002 0.075-1.412c-0.688-0.765-1.235-1.75-1.526-2.877-0.484-1.872-0.164-3.761 0.746-5.305s2.407-2.74 4.279-3.224 3.761-0.164 5.305 0.746 2.74 2.407 3.224 4.279c0.116 0.435 0.506 0.75 0.969 0.75h1.253c0.536 0.004 1.061 0.111 1.545 0.312 0.815 0.339 1.517 0.943 1.97 1.773 0.529 0.97 0.615 2.061 0.325 3.044s-0.953 1.854-1.923 2.382c-0.485 0.264-0.664 0.872-0.399 1.357s0.872 0.664 1.357 0.399z"></path>
</symbol>
<symbol id="icon-users" viewBox="0 0 24 24">
<path d="M18 21v-2c0-1.38-0.561-2.632-1.464-3.536s-2.156-1.464-3.536-1.464h-8c-1.38 0-2.632 0.561-3.536 1.464s-1.464 2.156-1.464 3.536v2c0 0.552 0.448 1 1 1s1-0.448 1-1v-2c0-0.829 0.335-1.577 0.879-2.121s1.292-0.879 2.121-0.879h8c0.829 0 1.577 0.335 2.121 0.879s0.879 1.292 0.879 2.121v2c0 0.552 0.448 1 1 1s1-0.448 1-1zM14 7c0-1.38-0.561-2.632-1.464-3.536s-2.156-1.464-3.536-1.464-2.632 0.561-3.536 1.464-1.464 2.156-1.464 3.536 0.561 2.632 1.464 3.536 2.156 1.464 3.536 1.464 2.632-0.561 3.536-1.464 1.464-2.156 1.464-3.536zM12 7c0 0.829-0.335 1.577-0.879 2.121s-1.292 0.879-2.121 0.879-1.577-0.335-2.121-0.879-0.879-1.292-0.879-2.121 0.335-1.577 0.879-2.121 1.292-0.879 2.121-0.879 1.577 0.335 2.121 0.879 0.879 1.292 0.879 2.121zM24 21v-2c-0.001-1.245-0.457-2.385-1.215-3.261-0.652-0.753-1.528-1.311-2.529-1.576-0.534-0.141-1.081 0.177-1.222 0.711s0.177 1.081 0.711 1.222c0.607 0.161 1.136 0.498 1.528 0.952 0.454 0.526 0.726 1.206 0.727 1.952v2c0 0.552 0.448 1 1 1s1-0.448 1-1zM15.752 4.099c0.803 0.206 1.445 0.715 1.837 1.377s0.531 1.47 0.325 2.273c-0.176 0.688-0.575 1.256-1.105 1.652-0.314 0.235-0.675 0.409-1.063 0.511-0.534 0.14-0.854 0.687-0.713 1.221s0.687 0.854 1.221 0.713c0.637-0.167 1.232-0.455 1.752-0.844 0.884-0.66 1.552-1.613 1.845-2.758 0.342-1.337 0.11-2.689-0.542-3.788s-1.725-1.953-3.062-2.296c-0.535-0.137-1.080 0.186-1.217 0.721s0.186 1.080 0.721 1.217z"></path>
</symbol>
<symbol id="icon-video" viewBox="0 0 24 24">
<path d="M22 8.943v6.114l-4.28-3.057zM3 4c-0.828 0-1.58 0.337-2.121 0.879s-0.879 1.293-0.879 2.121v10c0 0.828 0.337 1.58 0.879 2.121s1.293 0.879 2.121 0.879h11c0.828 0 1.58-0.337 2.121-0.879s0.879-1.293 0.879-2.121v-3.057l5.419 3.871c0.449 0.321 1.074 0.217 1.395-0.232 0.126-0.178 0.187-0.383 0.186-0.582v-10c0-0.552-0.448-1-1-1-0.218 0-0.42 0.070-0.581 0.186l-5.419 3.871v-3.057c0-0.828-0.337-1.58-0.879-2.121s-1.293-0.879-2.121-0.879zM3 6h11c0.276 0 0.525 0.111 0.707 0.293s0.293 0.431 0.293 0.707v10c0 0.276-0.111 0.525-0.293 0.707s-0.431 0.293-0.707 0.293h-11c-0.276 0-0.525-0.111-0.707-0.293s-0.293-0.431-0.293-0.707v-10c0-0.276 0.111-0.525 0.293-0.707s0.431-0.293 0.707-0.293z"></path>
</symbol>
<symbol id="icon-zap" viewBox="0 0 24 24">
<path d="M11.585 5.26l-0.577 4.616c0.033 0.716 0.465 1.124 0.992 1.124h6.865l-6.45 7.74 0.577-4.616c-0.033-0.716-0.465-1.124-0.992-1.124h-6.865zM12.232 1.36l-10 12c-0.354 0.424-0.296 1.055 0.128 1.408 0.187 0.157 0.415 0.233 0.64 0.232h7.867l-0.859 6.876c-0.069 0.548 0.32 1.048 0.868 1.116 0.349 0.044 0.678-0.098 0.892-0.352l10-12c0.354-0.424 0.296-1.055-0.128-1.408-0.187-0.157-0.415-0.233-0.64-0.232h-7.867l0.859-6.876c0.069-0.548-0.32-1.048-0.868-1.116-0.349-0.044-0.678 0.098-0.892 0.352z"></path>
</symbol>
<symbol id="icon-chevron-left1" viewBox="0 0 24 24">
<path d="M15.707 17.293l-5.293-5.293 5.293-5.293c0.391-0.391 0.391-1.024 0-1.414s-1.024-0.391-1.414 0l-6 6c-0.391 0.391-0.391 1.024 0 1.414l6 6c0.391 0.391 1.024 0.391 1.414 0s0.391-1.024 0-1.414z"></path>
</symbol>
</defs>
</svg>
